<?xml version="1.0" encoding="UTF-8"?>
<svg fill="#808080" width="100pt" height="100pt" version="1.1" viewBox="0 0 100 100" xmlns="http://www.w3.org/2000/svg">
 <g>
  <path d="m18.875 41.859c-0.52344 0-0.96484-0.40625-0.99609-0.9375-0.38281-6.2305 1.9219-12.332 6.3164-16.73 4.1094-4.1016 9.5742-6.3594 15.387-6.3594 0.55469 0 1 0.44922 1 1s-0.44531 1-1 1c-5.2773 0-10.242 2.0508-13.973 5.7734-3.9883 3.9922-6.0781 9.5312-5.7344 15.195 0.035156 0.55078-0.38672 1.0234-0.9375 1.0586h-0.0625z"/>
  <path d="m93.078 83.82c2.5586 2.5586 2.5586 6.6992 0 9.2617-1.2773 1.2773-2.9492 1.918-4.6289 1.918-1.6797 0-3.3516-0.64062-4.6289-1.9219l-17.039-17.039c-1.5508-1.5391-2.1406-3.6719-1.8203-5.6797l-3.7891-3.7891c-6.3008 5.0508-13.941 7.5781-21.59 7.5781-8.8516 0-17.699-3.3789-24.449-10.129-13.512-13.5-13.512-35.391 0-48.891 6.7461-6.75 15.598-10.129 24.445-10.129 8.8398 0 17.691 3.3789 24.441 10.129 12.59 12.59 13.441 32.461 2.5508 46.039l3.7891 3.7891c2.0117-0.32031 4.1406 0.26953 5.6797 1.8203zm-36-26.742c9.6406-9.6484 9.6406-25.359 0-35.012-4.6797-4.6719-10.891-7.2383-17.5-7.2383-6.6211 0-12.828 2.5703-17.512 7.2383-9.6406 9.6484-9.6406 25.359 0 35.012 4.6797 4.6719 10.891 7.2383 17.512 7.2383 6.6133 0.003906 12.82-2.5664 17.5-7.2383z"/>
 </g>
</svg>
